<svg width="6" height="22" viewBox="0 0 6 22" fill="none" xmlns="http://www.w3.org/2000/svg">
<path d="M2.99967 21.6668C2.26634 21.6668 1.63856 21.4057 1.11634 20.8835C0.594119 20.3613 0.333008 19.7335 0.333008 19.0002C0.333008 18.2668 0.594119 17.6391 1.11634 17.1168C1.63856 16.5946 2.26634 16.3335 2.99967 16.3335C3.73301 16.3335 4.36079 16.5946 4.88301 17.1168C5.40523 17.6391 5.66634 18.2668 5.66634 19.0002C5.66634 19.7335 5.40523 20.3613 4.88301 20.8835C4.36079 21.4057 3.73301 21.6668 2.99967 21.6668ZM2.99967 13.6668C2.26634 13.6668 1.63856 13.4057 1.11634 12.8835C0.594119 12.3613 0.333008 11.7335 0.333008 11.0002C0.333008 10.2668 0.594119 9.63905 1.11634 9.11683C1.63856 8.59461 2.26634 8.3335 2.99967 8.3335C3.73301 8.3335 4.36079 8.59461 4.88301 9.11683C5.40523 9.63905 5.66634 10.2668 5.66634 11.0002C5.66634 11.7335 5.40523 12.3613 4.88301 12.8835C4.36079 13.4057 3.73301 13.6668 2.99967 13.6668ZM2.99967 5.66683C2.26634 5.66683 1.63856 5.40572 1.11634 4.8835C0.594119 4.36127 0.333008 3.7335 0.333008 3.00016C0.333008 2.26683 0.594119 1.63905 1.11634 1.11683C1.63856 0.594607 2.26634 0.333496 2.99967 0.333496C3.73301 0.333496 4.36079 0.594607 4.88301 1.11683C5.40523 1.63905 5.66634 2.26683 5.66634 3.00016C5.66634 3.7335 5.40523 4.36127 4.88301 4.8835C4.36079 5.40572 3.73301 5.66683 2.99967 5.66683Z" fill="white"/>
</svg>
